<mxfile host="app.diagrams.net" modified="2021-10-19T10:51:54.444Z" agent="5.0 (Windows NT 10.0; Win64; x64) AppleWebKit/537.36 (KHTML, like Gecko) Chrome/94.0.4606.81 Safari/537.36" etag="0sO5x7uwwEBBZLAOjp7j" version="15.5.2" type="github">
  <diagram id="4OVCEcOneE8dYbryRmd-" name="Page-1">
    <mxGraphModel dx="1038" dy="1658" grid="1" gridSize="10" guides="1" tooltips="1" connect="1" arrows="1" fold="1" page="1" pageScale="1" pageWidth="827" pageHeight="1169" math="0" shadow="0">
      <root>
        <mxCell id="0" />
        <mxCell id="1" parent="0" />
        <mxCell id="EIXL3A06h5EK1AlhY3RM-1" value="Borrower" style="swimlane;fontStyle=3;align=center;verticalAlign=top;childLayout=stackLayout;horizontal=1;startSize=26;horizontalStack=0;resizeParent=1;resizeParentMax=0;resizeLast=0;collapsible=1;marginBottom=0;" vertex="1" parent="1">
          <mxGeometry x="320" y="150" width="160" height="114" as="geometry" />
        </mxCell>
        <mxCell id="EIXL3A06h5EK1AlhY3RM-2" value="- name: String" style="text;strokeColor=none;fillColor=none;align=left;verticalAlign=top;spacingLeft=4;spacingRight=4;overflow=hidden;rotatable=0;points=[[0,0.5],[1,0.5]];portConstraint=eastwest;" vertex="1" parent="EIXL3A06h5EK1AlhY3RM-1">
          <mxGeometry y="26" width="160" height="54" as="geometry" />
        </mxCell>
        <mxCell id="EIXL3A06h5EK1AlhY3RM-3" value="" style="line;strokeWidth=1;fillColor=none;align=left;verticalAlign=middle;spacingTop=-1;spacingLeft=3;spacingRight=3;rotatable=0;labelPosition=right;points=[];portConstraint=eastwest;" vertex="1" parent="EIXL3A06h5EK1AlhY3RM-1">
          <mxGeometry y="80" width="160" height="8" as="geometry" />
        </mxCell>
        <mxCell id="EIXL3A06h5EK1AlhY3RM-4" value="+ method(type): type" style="text;strokeColor=none;fillColor=none;align=left;verticalAlign=top;spacingLeft=4;spacingRight=4;overflow=hidden;rotatable=0;points=[[0,0.5],[1,0.5]];portConstraint=eastwest;" vertex="1" parent="EIXL3A06h5EK1AlhY3RM-1">
          <mxGeometry y="88" width="160" height="26" as="geometry" />
        </mxCell>
        <mxCell id="EIXL3A06h5EK1AlhY3RM-5" value="Faculty" style="swimlane;fontStyle=1;align=center;verticalAlign=top;childLayout=stackLayout;horizontal=1;startSize=26;horizontalStack=0;resizeParent=1;resizeParentMax=0;resizeLast=0;collapsible=1;marginBottom=0;" vertex="1" parent="1">
          <mxGeometry x="50" y="40" width="160" height="86" as="geometry" />
        </mxCell>
        <mxCell id="EIXL3A06h5EK1AlhY3RM-6" value="- facultyId: String" style="text;strokeColor=none;fillColor=none;align=left;verticalAlign=top;spacingLeft=4;spacingRight=4;overflow=hidden;rotatable=0;points=[[0,0.5],[1,0.5]];portConstraint=eastwest;" vertex="1" parent="EIXL3A06h5EK1AlhY3RM-5">
          <mxGeometry y="26" width="160" height="26" as="geometry" />
        </mxCell>
        <mxCell id="EIXL3A06h5EK1AlhY3RM-7" value="" style="line;strokeWidth=1;fillColor=none;align=left;verticalAlign=middle;spacingTop=-1;spacingLeft=3;spacingRight=3;rotatable=0;labelPosition=right;points=[];portConstraint=eastwest;" vertex="1" parent="EIXL3A06h5EK1AlhY3RM-5">
          <mxGeometry y="52" width="160" height="8" as="geometry" />
        </mxCell>
        <mxCell id="EIXL3A06h5EK1AlhY3RM-8" value="+ verifyUser(int): boolean" style="text;strokeColor=none;fillColor=none;align=left;verticalAlign=top;spacingLeft=4;spacingRight=4;overflow=hidden;rotatable=0;points=[[0,0.5],[1,0.5]];portConstraint=eastwest;" vertex="1" parent="EIXL3A06h5EK1AlhY3RM-5">
          <mxGeometry y="60" width="160" height="26" as="geometry" />
        </mxCell>
        <mxCell id="EIXL3A06h5EK1AlhY3RM-9" value="Student" style="swimlane;fontStyle=1;align=center;verticalAlign=top;childLayout=stackLayout;horizontal=1;startSize=26;horizontalStack=0;resizeParent=1;resizeParentMax=0;resizeLast=0;collapsible=1;marginBottom=0;" vertex="1" parent="1">
          <mxGeometry x="50" y="160" width="160" height="86" as="geometry" />
        </mxCell>
        <mxCell id="EIXL3A06h5EK1AlhY3RM-10" value="- studentId: String" style="text;strokeColor=none;fillColor=none;align=left;verticalAlign=top;spacingLeft=4;spacingRight=4;overflow=hidden;rotatable=0;points=[[0,0.5],[1,0.5]];portConstraint=eastwest;" vertex="1" parent="EIXL3A06h5EK1AlhY3RM-9">
          <mxGeometry y="26" width="160" height="26" as="geometry" />
        </mxCell>
        <mxCell id="EIXL3A06h5EK1AlhY3RM-11" value="" style="line;strokeWidth=1;fillColor=none;align=left;verticalAlign=middle;spacingTop=-1;spacingLeft=3;spacingRight=3;rotatable=0;labelPosition=right;points=[];portConstraint=eastwest;" vertex="1" parent="EIXL3A06h5EK1AlhY3RM-9">
          <mxGeometry y="52" width="160" height="8" as="geometry" />
        </mxCell>
        <mxCell id="EIXL3A06h5EK1AlhY3RM-12" value="+ verifyUser(int): boolean" style="text;strokeColor=none;fillColor=none;align=left;verticalAlign=top;spacingLeft=4;spacingRight=4;overflow=hidden;rotatable=0;points=[[0,0.5],[1,0.5]];portConstraint=eastwest;" vertex="1" parent="EIXL3A06h5EK1AlhY3RM-9">
          <mxGeometry y="60" width="160" height="26" as="geometry" />
        </mxCell>
        <mxCell id="EIXL3A06h5EK1AlhY3RM-13" value="Guest" style="swimlane;fontStyle=1;align=center;verticalAlign=top;childLayout=stackLayout;horizontal=1;startSize=26;horizontalStack=0;resizeParent=1;resizeParentMax=0;resizeLast=0;collapsible=1;marginBottom=0;" vertex="1" parent="1">
          <mxGeometry x="50" y="280" width="160" height="86" as="geometry" />
        </mxCell>
        <mxCell id="EIXL3A06h5EK1AlhY3RM-14" value="- guestId: String" style="text;strokeColor=none;fillColor=none;align=left;verticalAlign=top;spacingLeft=4;spacingRight=4;overflow=hidden;rotatable=0;points=[[0,0.5],[1,0.5]];portConstraint=eastwest;" vertex="1" parent="EIXL3A06h5EK1AlhY3RM-13">
          <mxGeometry y="26" width="160" height="26" as="geometry" />
        </mxCell>
        <mxCell id="EIXL3A06h5EK1AlhY3RM-15" value="" style="line;strokeWidth=1;fillColor=none;align=left;verticalAlign=middle;spacingTop=-1;spacingLeft=3;spacingRight=3;rotatable=0;labelPosition=right;points=[];portConstraint=eastwest;" vertex="1" parent="EIXL3A06h5EK1AlhY3RM-13">
          <mxGeometry y="52" width="160" height="8" as="geometry" />
        </mxCell>
        <mxCell id="EIXL3A06h5EK1AlhY3RM-16" value="+ verifyUser(int): boolean" style="text;strokeColor=none;fillColor=none;align=left;verticalAlign=top;spacingLeft=4;spacingRight=4;overflow=hidden;rotatable=0;points=[[0,0.5],[1,0.5]];portConstraint=eastwest;" vertex="1" parent="EIXL3A06h5EK1AlhY3RM-13">
          <mxGeometry y="60" width="160" height="26" as="geometry" />
        </mxCell>
        <mxCell id="EIXL3A06h5EK1AlhY3RM-17" value="Library" style="swimlane;fontStyle=1;align=center;verticalAlign=top;childLayout=stackLayout;horizontal=1;startSize=26;horizontalStack=0;resizeParent=1;resizeParentMax=0;resizeLast=0;collapsible=1;marginBottom=0;" vertex="1" parent="1">
          <mxGeometry x="690" y="220" width="160" height="86" as="geometry" />
        </mxCell>
        <mxCell id="EIXL3A06h5EK1AlhY3RM-18" value="+ field: type" style="text;strokeColor=none;fillColor=none;align=left;verticalAlign=top;spacingLeft=4;spacingRight=4;overflow=hidden;rotatable=0;points=[[0,0.5],[1,0.5]];portConstraint=eastwest;" vertex="1" parent="EIXL3A06h5EK1AlhY3RM-17">
          <mxGeometry y="26" width="160" height="26" as="geometry" />
        </mxCell>
        <mxCell id="EIXL3A06h5EK1AlhY3RM-19" value="" style="line;strokeWidth=1;fillColor=none;align=left;verticalAlign=middle;spacingTop=-1;spacingLeft=3;spacingRight=3;rotatable=0;labelPosition=right;points=[];portConstraint=eastwest;" vertex="1" parent="EIXL3A06h5EK1AlhY3RM-17">
          <mxGeometry y="52" width="160" height="8" as="geometry" />
        </mxCell>
        <mxCell id="EIXL3A06h5EK1AlhY3RM-20" value="+ method(type): type" style="text;strokeColor=none;fillColor=none;align=left;verticalAlign=top;spacingLeft=4;spacingRight=4;overflow=hidden;rotatable=0;points=[[0,0.5],[1,0.5]];portConstraint=eastwest;" vertex="1" parent="EIXL3A06h5EK1AlhY3RM-17">
          <mxGeometry y="60" width="160" height="26" as="geometry" />
        </mxCell>
        <mxCell id="EIXL3A06h5EK1AlhY3RM-22" value="" style="endArrow=block;endSize=16;endFill=0;html=1;rounded=0;exitX=1;exitY=0.5;exitDx=0;exitDy=0;entryX=-0.02;entryY=0.808;entryDx=0;entryDy=0;entryPerimeter=0;" edge="1" parent="1" target="EIXL3A06h5EK1AlhY3RM-4">
          <mxGeometry width="160" relative="1" as="geometry">
            <mxPoint x="210" y="319" as="sourcePoint" />
            <mxPoint x="330" y="239" as="targetPoint" />
          </mxGeometry>
        </mxCell>
        <mxCell id="EIXL3A06h5EK1AlhY3RM-23" value="" style="endArrow=block;endSize=16;endFill=0;html=1;rounded=0;exitX=1;exitY=0.5;exitDx=0;exitDy=0;entryX=0;entryY=0;entryDx=0;entryDy=0;" edge="1" parent="1" source="EIXL3A06h5EK1AlhY3RM-6" target="EIXL3A06h5EK1AlhY3RM-1">
          <mxGeometry width="160" relative="1" as="geometry">
            <mxPoint x="220" y="100" as="sourcePoint" />
            <mxPoint x="340" y="20" as="targetPoint" />
          </mxGeometry>
        </mxCell>
        <mxCell id="EIXL3A06h5EK1AlhY3RM-24" value="" style="endArrow=block;endSize=16;endFill=0;html=1;rounded=0;exitX=1;exitY=0.5;exitDx=0;exitDy=0;entryX=0;entryY=0.5;entryDx=0;entryDy=0;" edge="1" parent="1" source="EIXL3A06h5EK1AlhY3RM-10" target="EIXL3A06h5EK1AlhY3RM-2">
          <mxGeometry width="160" relative="1" as="geometry">
            <mxPoint x="220" y="220" as="sourcePoint" />
            <mxPoint x="340" y="140" as="targetPoint" />
          </mxGeometry>
        </mxCell>
        <mxCell id="EIXL3A06h5EK1AlhY3RM-25" value="Library Book" style="swimlane;fontStyle=1;align=center;verticalAlign=top;childLayout=stackLayout;horizontal=1;startSize=26;horizontalStack=0;resizeParent=1;resizeParentMax=0;resizeLast=0;collapsible=1;marginBottom=0;" vertex="1" parent="1">
          <mxGeometry x="690" y="50" width="160" height="86" as="geometry" />
        </mxCell>
        <mxCell id="EIXL3A06h5EK1AlhY3RM-26" value="+ field: type" style="text;strokeColor=none;fillColor=none;align=left;verticalAlign=top;spacingLeft=4;spacingRight=4;overflow=hidden;rotatable=0;points=[[0,0.5],[1,0.5]];portConstraint=eastwest;" vertex="1" parent="EIXL3A06h5EK1AlhY3RM-25">
          <mxGeometry y="26" width="160" height="26" as="geometry" />
        </mxCell>
        <mxCell id="EIXL3A06h5EK1AlhY3RM-27" value="" style="line;strokeWidth=1;fillColor=none;align=left;verticalAlign=middle;spacingTop=-1;spacingLeft=3;spacingRight=3;rotatable=0;labelPosition=right;points=[];portConstraint=eastwest;" vertex="1" parent="EIXL3A06h5EK1AlhY3RM-25">
          <mxGeometry y="52" width="160" height="8" as="geometry" />
        </mxCell>
        <mxCell id="EIXL3A06h5EK1AlhY3RM-28" value="+ method(type): type" style="text;strokeColor=none;fillColor=none;align=left;verticalAlign=top;spacingLeft=4;spacingRight=4;overflow=hidden;rotatable=0;points=[[0,0.5],[1,0.5]];portConstraint=eastwest;" vertex="1" parent="EIXL3A06h5EK1AlhY3RM-25">
          <mxGeometry y="60" width="160" height="26" as="geometry" />
        </mxCell>
        <mxCell id="EIXL3A06h5EK1AlhY3RM-40" value="" style="endArrow=none;html=1;rounded=0;exitX=0.5;exitY=0;exitDx=0;exitDy=0;entryX=0.505;entryY=1.031;entryDx=0;entryDy=0;entryPerimeter=0;" edge="1" parent="1" source="EIXL3A06h5EK1AlhY3RM-17" target="EIXL3A06h5EK1AlhY3RM-28">
          <mxGeometry relative="1" as="geometry">
            <mxPoint x="540" y="210" as="sourcePoint" />
            <mxPoint x="700" y="210" as="targetPoint" />
          </mxGeometry>
        </mxCell>
        <mxCell id="EIXL3A06h5EK1AlhY3RM-41" value="1" style="edgeLabel;resizable=0;html=1;align=left;verticalAlign=bottom;" connectable="0" vertex="1" parent="EIXL3A06h5EK1AlhY3RM-40">
          <mxGeometry x="-1" relative="1" as="geometry" />
        </mxCell>
        <mxCell id="EIXL3A06h5EK1AlhY3RM-42" value="1..*" style="edgeLabel;resizable=0;html=1;align=right;verticalAlign=bottom;" connectable="0" vertex="1" parent="EIXL3A06h5EK1AlhY3RM-40">
          <mxGeometry x="1" relative="1" as="geometry">
            <mxPoint y="23" as="offset" />
          </mxGeometry>
        </mxCell>
        <mxCell id="EIXL3A06h5EK1AlhY3RM-54" value="Account" style="swimlane;fontStyle=1;align=center;verticalAlign=top;childLayout=stackLayout;horizontal=1;startSize=26;horizontalStack=0;resizeParent=1;resizeParentMax=0;resizeLast=0;collapsible=1;marginBottom=0;" vertex="1" parent="1">
          <mxGeometry x="400" y="-130" width="230" height="140" as="geometry" />
        </mxCell>
        <mxCell id="EIXL3A06h5EK1AlhY3RM-55" value="- id: String&#xa;- date: String" style="text;strokeColor=none;fillColor=none;align=left;verticalAlign=top;spacingLeft=4;spacingRight=4;overflow=hidden;rotatable=0;points=[[0,0.5],[1,0.5]];portConstraint=eastwest;" vertex="1" parent="EIXL3A06h5EK1AlhY3RM-54">
          <mxGeometry y="26" width="230" height="54" as="geometry" />
        </mxCell>
        <mxCell id="EIXL3A06h5EK1AlhY3RM-56" value="" style="line;strokeWidth=1;fillColor=none;align=left;verticalAlign=middle;spacingTop=-1;spacingLeft=3;spacingRight=3;rotatable=0;labelPosition=right;points=[];portConstraint=eastwest;" vertex="1" parent="EIXL3A06h5EK1AlhY3RM-54">
          <mxGeometry y="80" width="230" height="8" as="geometry" />
        </mxCell>
        <mxCell id="EIXL3A06h5EK1AlhY3RM-57" value="+ borrowBook(Borrower, Book): boolean&#xa;+ returnBook(Borrower, Book): boolean" style="text;strokeColor=none;fillColor=none;align=left;verticalAlign=top;spacingLeft=4;spacingRight=4;overflow=hidden;rotatable=0;points=[[0,0.5],[1,0.5]];portConstraint=eastwest;" vertex="1" parent="EIXL3A06h5EK1AlhY3RM-54">
          <mxGeometry y="88" width="230" height="52" as="geometry" />
        </mxCell>
        <mxCell id="EIXL3A06h5EK1AlhY3RM-58" value="Borrows" style="endArrow=none;html=1;rounded=0;" edge="1" parent="1" target="EIXL3A06h5EK1AlhY3RM-57">
          <mxGeometry relative="1" as="geometry">
            <mxPoint x="414.99125560538096" y="150" as="sourcePoint" />
            <mxPoint x="458.6500000000001" y="-16" as="targetPoint" />
          </mxGeometry>
        </mxCell>
        <mxCell id="EIXL3A06h5EK1AlhY3RM-59" value="1" style="edgeLabel;resizable=0;html=1;align=left;verticalAlign=bottom;" connectable="0" vertex="1" parent="EIXL3A06h5EK1AlhY3RM-58">
          <mxGeometry x="-1" relative="1" as="geometry" />
        </mxCell>
        <mxCell id="EIXL3A06h5EK1AlhY3RM-60" value="1..4" style="edgeLabel;resizable=0;html=1;align=right;verticalAlign=bottom;" connectable="0" vertex="1" parent="EIXL3A06h5EK1AlhY3RM-58">
          <mxGeometry x="1" relative="1" as="geometry">
            <mxPoint y="23" as="offset" />
          </mxGeometry>
        </mxCell>
        <mxCell id="EIXL3A06h5EK1AlhY3RM-61" value="Borrowed" style="endArrow=none;html=1;rounded=0;entryX=1.003;entryY=0.296;entryDx=0;entryDy=0;entryPerimeter=0;exitX=0.87;exitY=-0.033;exitDx=0;exitDy=0;exitPerimeter=0;" edge="1" parent="1" source="EIXL3A06h5EK1AlhY3RM-25" target="EIXL3A06h5EK1AlhY3RM-55">
          <mxGeometry relative="1" as="geometry">
            <mxPoint x="700.001255605381" y="-44" as="sourcePoint" />
            <mxPoint x="743.6600000000001" y="-210" as="targetPoint" />
          </mxGeometry>
        </mxCell>
        <mxCell id="EIXL3A06h5EK1AlhY3RM-62" value="1" style="edgeLabel;resizable=0;html=1;align=left;verticalAlign=bottom;" connectable="0" vertex="1" parent="EIXL3A06h5EK1AlhY3RM-61">
          <mxGeometry x="-1" relative="1" as="geometry" />
        </mxCell>
        <mxCell id="EIXL3A06h5EK1AlhY3RM-63" value="1..*" style="edgeLabel;resizable=0;html=1;align=right;verticalAlign=bottom;" connectable="0" vertex="1" parent="EIXL3A06h5EK1AlhY3RM-61">
          <mxGeometry x="1" relative="1" as="geometry">
            <mxPoint x="29" y="23" as="offset" />
          </mxGeometry>
        </mxCell>
      </root>
    </mxGraphModel>
  </diagram>
</mxfile>
